<svg width="640" height="520" viewBox="0 0 640 520" fill="none" xmlns="http://www.w3.org/2000/svg">
  <rect width="640" height="520" rx="8" fill="#F5F7FB"/>
  <rect x="82" y="96" width="162" height="118" rx="8" fill="#FFFFFF" stroke="#D9E2EF" stroke-width="4"/>
  <rect x="112" y="126" width="78" height="14" rx="7" fill="#071B33"/>
  <rect x="112" y="160" width="102" height="12" rx="6" fill="#8FA6C4"/>
  <rect x="112" y="186" width="72" height="12" rx="6" fill="#42C4D6"/>
  <rect x="398" y="96" width="162" height="118" rx="8" fill="#FFFFFF" stroke="#D9E2EF" stroke-width="4"/>
  <rect x="428" y="126" width="78" height="14" rx="7" fill="#071B33"/>
  <rect x="428" y="160" width="102" height="12" rx="6" fill="#8FA6C4"/>
  <rect x="428" y="186" width="72" height="12" rx="6" fill="#42C4D6"/>
  <rect x="239" y="278" width="162" height="118" rx="8" fill="#071B33"/>
  <rect x="268" y="310" width="76" height="14" rx="7" fill="#FFFFFF"/>
  <rect x="268" y="344" width="104" height="12" rx="6" fill="#8FA6C4"/>
  <rect x="268" y="370" width="72" height="12" rx="6" fill="#42C4D6"/>
  <path d="M244 154H318C329.046 154 338 162.954 338 174V278" stroke="#2F80ED" stroke-width="8" stroke-linecap="round"/>
  <path d="M398 154H322C310.954 154 302 162.954 302 174V278" stroke="#2F80ED" stroke-width="8" stroke-linecap="round"/>
  <circle cx="338" cy="236" r="18" fill="#42C4D6"/>
  <circle cx="302" cy="236" r="18" fill="#42C4D6"/>
  <rect x="244" y="432" width="152" height="24" rx="12" fill="#D9E2EF"/>
  <rect x="284" y="416" width="72" height="28" rx="14" fill="#2F80ED"/>
</svg>
