<svg width="640" height="520" viewBox="0 0 640 520" fill="none" xmlns="http://www.w3.org/2000/svg">
  <rect width="640" height="520" rx="8" fill="#F5F7FB"/>
  <rect x="104" y="72" width="252" height="384" rx="28" fill="#071B33"/>
  <rect x="124" y="102" width="212" height="312" rx="12" fill="#FFFFFF"/>
  <rect x="148" y="132" width="116" height="16" rx="8" fill="#2F80ED"/>
  <rect x="148" y="174" width="164" height="12" rx="6" fill="#D9E2EF"/>
  <rect x="148" y="202" width="132" height="12" rx="6" fill="#D9E2EF"/>
  <rect x="148" y="246" width="156" height="76" rx="12" fill="#E8F2FF"/>
  <rect x="168" y="268" width="62" height="12" rx="6" fill="#2F80ED"/>
  <rect x="168" y="292" width="98" height="10" rx="5" fill="#8FA6C4"/>
  <circle cx="230" cy="434" r="10" fill="#42C4D6"/>
  <rect x="392" y="132" width="144" height="112" rx="8" fill="#FFFFFF" stroke="#D9E2EF" stroke-width="4"/>
  <rect x="416" y="160" width="72" height="12" rx="6" fill="#071B33"/>
  <rect x="416" y="190" width="96" height="10" rx="5" fill="#8FA6C4"/>
  <rect x="416" y="214" width="62" height="10" rx="5" fill="#42C4D6"/>
  <rect x="396" y="288" width="112" height="112" rx="56" fill="#E8F2FF"/>
  <path d="M452 324L474 346L452 368" stroke="#2F80ED" stroke-width="12" stroke-linecap="round" stroke-linejoin="round"/>
  <path d="M430 324L408 346L430 368" stroke="#071B33" stroke-width="12" stroke-linecap="round" stroke-linejoin="round"/>
  <path d="M450 374L466 318" stroke="#42C4D6" stroke-width="10" stroke-linecap="round"/>
</svg>
